<svg version="1" xmlns="http://www.w3.org/2000/svg" width="385.333" height="385.333" viewBox="0 0 289.000000 289.000000"><path d="M136.5 2.2c-3.8 1.3-30.1 21.1-39.1 29.3-.6.5-4.4 3.9-8.5 7.5-9.2 8-39.3 38.1-47.6 47.5-3.4 3.8-7.4 8.3-8.8 10-6.3 7.1-24.8 31.1-27.3 35.3-2.3 4-2.7 5.8-2.6 12.2 0 8.9 1 10.8 12.5 25.5 32.3 41.4 68.1 76.9 107.8 106.9 11.6 8.8 16.6 10.8 24.8 10.1 6.1-.5 9-2 20.8-10.9 28.1-21.2 62.3-53.5 86-81.1 3.3-3.8 7.1-8.2 8.4-9.7 5.5-6.3 19.4-24.6 21.9-28.8 2.3-3.9 2.7-5.6 2.7-12.5-.1-7.5-.3-8.4-3.6-13.5-3.1-4.7-13.9-18.8-19.6-25.6-1-1.1-4-4.7-6.8-8C238 73.2 203 39.4 178 19.6c-4.7-3.7-9.3-7.4-10.3-8.3-5.3-4.1-11.6-8.1-14.6-9.2-4.1-1.3-12.5-1.3-16.6.1zm28.4 122.2l19.4 19.4-19.6 19.6-19.6 19.7-19.7-19.7-19.7-19.6 19.4-19.4c10.7-10.7 19.6-19.4 19.9-19.4.3 0 9.2 8.7 19.9 19.4z"/></svg>