<?xml version="1.0" encoding="UTF-8"?>
<svg viewBox="0 0 174 113">
    <g id="logo" stroke="none" stroke-width="1" fill="none" fill-rule="evenodd">
        <path d="M108.308428,1 L117.322513,17.6760563 C120.327208,23.3849765 123.782607,25.4882629 130.092466,25.4882629 L134.599508,25.4882629 L134.599508,41.8638498 C134.599508,48.0234742 131.895283,51.028169 125.585424,51.028169 L124.83425,51.028169 C116.421104,51.028169 110.411715,46.971831 103.801386,36.7558685 L91.632372,17.8262911 C89.0783814,13.6197183 94.1863626,8.51173709 108.308428,1 Z" id="Path" stroke="#317B31" transform="translate(112.799754, 26.014085) rotate(-180.000000) translate(-112.799754, -26.014085) "></path>
        <path d="M150.685446,58.2453967 C150.685446,87.9918756 132.807512,106.771218 111.023474,106.771218 L110.122066,106.771218 C102.00939,106.771218 96,99.5599507 96,92.4989179 C96,89.7946925 96.7511737,87.0904672 98.5539906,85.2876503 C102.159624,87.3909366 103.661972,87.9918756 109.521127,87.9918756 C120.788732,87.9918756 128.150235,78.9777911 128.150235,59.7477442 L128.150235,57.494223 C128.150235,46.2266174 125.596244,40.3674625 117.784038,34.2078381 C124.84507,28.1984484 134.00939,28.6491526 141.220657,35.409716 C148.58216,42.3205141 150.685446,48.179669 150.685446,55.2407019 L150.685446,58.2453967 Z" id="Path" stroke="#317B31" transform="translate(123.342723, 68.385609) rotate(-180.000000) translate(-123.342723, -68.385609) "></path>
        <path d="M102.750957,87.9859155 C116.121849,85.8826291 129.042037,84.9812207 144.365981,84.9812207 C156.534995,84.9812207 162.544384,87.3849765 170.65706,95.4976526 C173.661755,98.5023474 173.81199,108.267606 169.905887,112.173709 C163.145323,108.41784 157.436403,107.516432 147.82138,107.516432 C129.793211,107.516432 122.581943,107.816901 116.572553,109.169014 C111.915276,110.220657 110.262694,110.521127 108.760347,110.521127 C107.558469,110.521127 107.107765,110.220657 106.206356,109.319249 C103.502131,106.615023 102.750957,98.9530516 102.750957,91.741784 L102.750957,87.9859155 Z" id="Recursive-Copy-2" stroke="#317B31" transform="translate(137.814446, 98.577465) rotate(-180.000000) translate(-137.814446, -98.577465) "></path>
        <path d="M165.037559,103.657277 L161.28169,103.657277 C154.070423,103.657277 146.107981,101.85446 142.201878,97.9483568 C141.300469,97.0469484 141,96.5962441 141,95.3943662 L141,3 L144.755869,3 C151.967136,3 161.732394,5.10328638 163.835681,7.20657277 C164.737089,8.10798122 165.037559,8.55868545 165.037559,9.76056338 L165.037559,103.657277 Z" id="Path" stroke="#317B31" transform="translate(153.018779, 53.328638) rotate(-180.000000) translate(-153.018779, -53.328638) "></path>
        <path d="M56.5868545,62.1455399 L65.600939,78.8215962 C68.6056338,84.5305164 72.0610329,86.6338028 78.370892,86.6338028 L82.8779343,86.6338028 L82.8779343,103.00939 C82.8779343,109.169014 80.1737089,112.173709 73.8638498,112.173709 L73.1126761,112.173709 C64.6995305,112.173709 58.6901408,108.117371 52.0798122,97.9014085 L39.9107981,78.971831 C37.3568075,74.7652582 42.4647887,69.657277 56.5868545,62.1455399 Z" id="Path" stroke="#317B31"></path>
        <path d="M78.370892,34.3521127 C78.370892,64.0985915 60.4929577,82.8779343 38.7089202,82.8779343 L37.8075117,82.8779343 C29.6948357,82.8779343 23.685446,75.6666667 23.685446,68.6056338 C23.685446,65.9014085 24.4366197,63.1971831 26.2394366,61.3943662 C29.8450704,63.4976526 31.3474178,64.0985915 37.2065728,64.0985915 C48.4741784,64.0985915 55.8356808,55.084507 55.8356808,35.8544601 L55.8356808,33.600939 C55.8356808,22.3333333 53.2816901,16.4741784 45.4694836,10.314554 C52.5305164,4.30516432 61.6948357,4.75586854 68.9061033,11.5164319 C76.2676056,18.42723 78.370892,24.286385 78.370892,31.3474178 L78.370892,34.3521127 Z" id="Path" stroke="#317B31"></path>
        <path d="M1,4.00469484 C14.370892,1.90140845 27.2910798,1 42.6150235,1 C54.7840376,1 60.7934272,3.40375587 68.9061033,11.5164319 C71.9107981,14.5211268 72.0610329,24.286385 68.1549296,28.1924883 C61.3943662,24.4366197 55.685446,23.5352113 46.0704225,23.5352113 C28.0422535,23.5352113 20.8309859,23.8356808 14.8215962,25.1877934 C10.1643192,26.2394366 8.51173709,26.5399061 7.00938967,26.5399061 C5.80751174,26.5399061 5.35680751,26.2394366 4.45539906,25.3380282 C1.75117371,22.6338028 1,14.971831 1,7.76056338 L1,4.00469484 Z" id="Recursive" stroke="#317B31"></path>
        <path d="M32.5492958,110.671362 L28.7934272,110.671362 C21.5821596,110.671362 13.6197183,108.868545 9.71361502,104.962441 C8.81220657,104.061033 8.51173709,103.610329 8.51173709,102.408451 L8.51173709,10.0140845 L12.2676056,10.0140845 C19.4788732,10.0140845 29.2441315,12.1173709 31.3474178,14.2206573 C32.2488263,15.1220657 32.5492958,15.57277 32.5492958,16.7746479 L32.5492958,110.671362 Z" id="Path" stroke="#317B31"></path>
    </g>
</svg>