<?xml version="1.0" encoding="UTF-8"?>
<svg viewBox="0 0 802 121" version="1.1">
    <g id="title" stroke="none" stroke-width="1" fill="none" fill-rule="evenodd">
        <path d="M1,11.5164319 C14.370892,9.41314554 27.2910798,8.51173709 42.6150235,8.51173709 C54.7840376,8.51173709 60.7934272,10.915493 68.9061033,19.028169 C71.9107981,22.0328638 72.0610329,31.7981221 68.1549296,35.7042254 C61.3943662,31.9483568 55.685446,31.0469484 46.0704225,31.0469484 C28.0422535,31.0469484 20.8309859,31.3474178 14.8215962,32.6995305 C10.1643192,33.7511737 8.51173709,34.0516432 7.00938967,34.0516432 C5.80751174,34.0516432 5.35680751,33.7511737 4.45539906,32.8497653 C1.75117371,30.1455399 1,22.4835681 1,15.2723005 L1,11.5164319 Z M32.5492958,118.183099 L28.7934272,118.183099 C21.5821596,118.183099 13.6197183,116.380282 9.71361502,112.474178 C8.81220657,111.57277 8.51173709,111.122066 8.51173709,109.920188 L8.51173709,17.5258216 L12.2676056,17.5258216 C19.4788732,17.5258216 29.2441315,19.629108 31.3474178,21.7323944 C32.2488263,22.6338028 32.5492958,23.084507 32.5492958,24.286385 L32.5492958,118.183099 Z M78.370892,41.8638498 C78.370892,71.6103286 60.4929577,90.3896714 38.7089202,90.3896714 L37.8075117,90.3896714 C29.6948357,90.3896714 23.685446,83.1784038 23.685446,76.1173709 C23.685446,73.4131455 24.4366197,70.7089202 26.2394366,68.9061033 C29.8450704,71.0093897 31.3474178,71.6103286 37.2065728,71.6103286 C48.4741784,71.6103286 55.8356808,62.5962441 55.8356808,43.3661972 L55.8356808,41.1126761 C55.8356808,29.8450704 53.2816901,23.9859155 45.4694836,17.8262911 C52.5305164,11.8169014 61.6948357,12.2676056 68.9061033,19.028169 C76.2676056,25.9389671 78.370892,31.7981221 78.370892,38.8591549 L78.370892,41.8638498 Z M56.5868545,69.657277 L65.600939,86.3333333 C68.6056338,92.0422535 72.0610329,94.1455399 78.370892,94.1455399 L82.8779343,94.1455399 L82.8779343,110.521127 C82.8779343,116.680751 80.1737089,119.685446 73.8638498,119.685446 L73.1126761,119.685446 C64.6995305,119.685446 58.6901408,115.629108 52.0798122,105.413146 L39.9107981,86.4835681 C37.3568075,82.2769953 42.4647887,77.1690141 56.5868545,69.657277 Z M140.71831,52.8309859 C126.746479,52.8309859 117.431925,61.2441315 117.431925,82.1267606 L117.431925,82.5774648 C117.431925,90.8403756 119.685446,100.906103 125.394366,106.765258 C117.131455,113.075117 109.769953,111.57277 105.86385,107.666667 C98.9530516,100.755869 94.8967136,89.9389671 94.8967136,77.7699531 L94.8967136,77.3192488 C94.8967136,52.6807512 111.873239,33.7511737 138.314554,33.7511737 C145.525822,33.7511737 153.037559,38.4084507 153.037559,46.971831 C153.037559,49.6760563 151.835681,52.6807512 149.28169,54.6338028 C146.126761,53.4319249 143.723005,52.8309859 140.71831,52.8309859 Z M162.201878,113.525822 C158.596244,117.131455 148.079812,119.685446 137.262911,119.685446 C124.793427,119.685446 114.42723,116.230047 105.86385,107.666667 C102.107981,103.910798 100.305164,93.3943662 103.309859,85.8826291 C114.126761,95.6478873 121.187793,98.6525822 134.558685,98.6525822 C146.577465,98.6525822 156.342723,96.5492958 165.807512,91.1408451 L166.408451,91.1408451 C166.859155,93.0938967 167.00939,95.0469484 167.00939,96.8497653 C167.00939,104.211268 164.906103,110.821596 162.201878,113.525822 Z M130.953052,85.2816901 L130.352113,85.2816901 C121.338028,85.2816901 112.624413,78.2206573 112.624413,73.4131455 C112.624413,72.3615023 112.774648,70.5586854 113.225352,69.056338 C115.779343,70.1079812 120.586854,71.0093897 126.295775,71.0093897 C139.666667,71.0093897 146.276995,67.2535211 146.276995,60.1924883 L146.276995,59.741784 C146.276995,51.7793427 141.920188,47.8732394 132.305164,47.8732394 C132.305164,39.6103286 134.859155,33.7511737 138.314554,33.7511737 C157.244131,33.7511737 170.014085,47.7230047 170.014085,60.943662 L170.014085,61.3943662 C170.014085,75.8169014 158.446009,85.2816901 130.953052,85.2816901 Z M228.605634,33.7511737 C237.319249,33.7511737 243.779343,37.2065728 249.638498,43.0657277 C253.995305,47.4225352 252.042254,57.1877934 249.788732,61.0938967 C243.028169,57.1877934 238.220657,55.3849765 230.558685,55.3849765 C217.338028,55.3849765 207.723005,65.600939 207.723005,80.3239437 L207.723005,81.5258216 C207.723005,91.5915493 211.929577,99.7042254 218.389671,107.816901 C211.328638,114.877934 204.117371,113.676056 196.755869,106.314554 C188.643192,98.2018779 185.187793,91.741784 185.187793,78.971831 L185.187793,77.4694836 C185.187793,52.2300469 203.065728,33.7511737 228.605634,33.7511737 Z M225.751174,118.483568 C212.830986,118.483568 205.469484,115.028169 196.755869,106.314554 C192.699531,102.258216 190.446009,93.2441315 193.300469,86.0328638 C205.169014,93.8450704 211.028169,96.6995305 225.901408,96.6995305 C238.070423,96.6995305 248.13615,95.1971831 257.300469,89.9389671 L257.901408,89.9389671 C258.352113,91.8920188 258.502347,93.8450704 258.502347,95.6478873 C258.502347,103.00939 256.399061,109.619718 253.694836,112.323944 C249.938967,116.079812 237.769953,118.483568 225.751174,118.483568 Z M258.652582,75.8169014 C256.399061,76.4178404 253.394366,76.7183099 249.938967,76.7183099 C242.7277,76.7183099 238.971831,75.8169014 236.71831,73.5633803 C235.366197,72.2112676 234.615023,70.1079812 234.615023,67.4037559 L234.615023,66.6525822 C234.615023,60.1924883 236.568075,51.7793427 240.173709,41.2629108 C243.328638,40.2112676 246.483568,39.9107981 249.638498,43.0657277 C256.849765,50.2769953 258.652582,55.2347418 258.652582,65 L258.652582,75.8169014 Z M322.502347,35.5539906 C324.755869,34.9530516 327.760563,34.6525822 331.215962,34.6525822 C339.779343,34.6525822 346.539906,35.8544601 346.539906,43.9671362 L346.539906,100.755869 C346.539906,106.615023 347.140845,111.2723 348.492958,116.680751 C346.389671,117.131455 344.286385,117.28169 342.183099,117.28169 C337.375587,117.28169 329.86385,116.230047 326.558685,112.924883 C323.553991,109.920188 322.502347,107.516432 322.502347,99.7042254 L322.502347,35.5539906 Z M297.713615,118.483568 C287.948357,118.483568 277.431925,103.910798 277.431925,94.7464789 C277.431925,91.8920188 279.985915,88.1361502 284.943662,88.1361502 C289,92.6431925 294.258216,94.4460094 301.469484,94.4460094 C311.535211,94.4460094 318.295775,91.4413146 330.615023,82.1267606 C330.615023,97.7511737 329.713615,100.755869 324.755869,105.86385 C315.591549,115.328638 304.173709,118.483568 297.713615,118.483568 Z M276.230047,34.6525822 L278.483568,34.6525822 C295.00939,34.6525822 301.469484,37.2065728 301.469484,43.9671362 L301.469484,106.915493 C288.699531,106.915493 277.431925,103.309859 277.431925,94.7464789 L277.431925,49.9765258 C277.431925,45.3192488 277.131455,40.2112676 276.230047,34.6525822 Z M362.464789,35.5539906 C367.873239,34.5023474 373.882629,34.0516432 381.093897,34.0516432 C387.403756,34.0516432 387.85446,43.3661972 387.85446,54.6338028 C380.342723,56.4366197 373.431925,58.0892019 367.723005,58.0892019 C363.215962,58.0892019 361.413146,53.1314554 361.413146,46.5211268 C361.413146,42.4647887 361.713615,39.6103286 362.464789,35.5539906 Z M398.821596,117.58216 L396.568075,117.58216 C380.042254,117.58216 373.58216,115.028169 373.58216,108.267606 L373.58216,36.0046948 C375.384977,34.5023474 377.338028,34.0516432 381.093897,34.0516432 C389.807512,34.0516432 397.619718,45.0187793 397.619718,57.0375587 L397.619718,102.258216 C397.619718,107.516432 398.070423,112.624413 398.821596,117.58216 Z M417.901408,32.5492958 C427.666667,32.5492958 438.934272,47.1220657 438.934272,56.286385 C438.934272,59.741784 436.380282,64.399061 431.422535,64.399061 C427.516432,60.0422535 423.00939,58.0892019 416.399061,58.0892019 C407.384977,58.0892019 400.474178,61.5446009 388.755869,70.4084507 C388.755869,57.1877934 388.755869,54.4835681 393.86385,47.57277 C399.57277,39.7605634 411.441315,32.5492958 417.901408,32.5492958 Z M438.934272,76.1173709 C436.680751,76.7183099 433.676056,77.0187793 430.220657,77.0187793 C421.657277,77.0187793 414.896714,75.8169014 414.896714,67.7042254 C414.896714,61.8450704 416.699531,51.3286385 418.652582,45.1690141 C429.769953,45.3192488 438.934272,48.3239437 438.934272,56.286385 L438.934272,76.1173709 Z M504.286385,33.7511737 C512.699531,33.7511737 519.760563,35.5539906 521.413146,37.2065728 C525.018779,40.8122066 526.821596,46.2206573 526.821596,54.9342723 C526.821596,56.8873239 526.521127,58.8403756 526.070423,60.7934272 L525.469484,60.7934272 C519.159624,57.9389671 513.300469,56.286385 502.934272,56.286385 C487.760563,56.286385 481.751174,58.3896714 481.751174,61.2441315 C481.751174,64.399061 482.051643,67.1032864 484.004695,71.6103286 C469.58216,71.6103286 459.215962,67.1032864 459.215962,60.4929577 C459.215962,44.4178404 480.699531,33.7511737 502.483568,33.7511737 L504.286385,33.7511737 Z M508.042254,69.3568075 C524.117371,72.8122066 530.577465,78.6713615 530.577465,92.0422535 C530.577465,95.6478873 526.070423,104.812207 517.657277,106.164319 C518.107981,103.309859 518.258216,101.657277 518.258216,100.305164 C518.258216,92.6431925 512.849765,89.4882629 500.530516,86.6338028 L483.103286,82.5774648 C465.826291,78.5211268 459.215962,72.6619718 459.215962,60.4929577 C459.215962,55.5352113 469.28169,52.2300469 484.305164,50.5774648 C482.201878,55.2347418 481.751174,58.8403756 481.751174,61.2441315 C481.751174,63.7981221 484.305164,64.2488263 493.920188,66.3521127 L508.042254,69.3568075 Z M493.018779,95.9483568 C508.793427,95.9483568 518.258216,92.342723 518.258216,88.1361502 C518.258216,86.6338028 518.258216,85.1314554 517.507042,82.1267606 C525.319249,83.9295775 530.577465,83.4788732 530.577465,92.0422535 C530.577465,110.370892 518.70892,118.483568 491.215962,118.483568 L488.361502,118.483568 C472.887324,118.483568 462.070423,113.826291 460.568075,112.323944 C458.314554,110.070423 455.460094,105.713615 455.460094,95.7981221 C455.460094,92.342723 455.760563,89.9389671 456.211268,87.685446 L456.812207,87.685446 C467.779343,93.8450704 473.638498,95.9483568 493.018779,95.9483568 Z M543.497653,35.5539906 C552.361502,34.5023474 561.676056,34.0516432 571.140845,34.0516432 C578.502347,34.0516432 577.600939,44.1173709 577.600939,55.3849765 C561.525822,55.3849765 555.816901,58.0892019 549.056338,58.0892019 C545.600939,58.0892019 542.596244,54.3333333 542.596244,44.2676056 C542.596244,40.8122066 542.896714,37.8075117 543.497653,35.5539906 Z M591.2723,38.8591549 C593.225352,40.8122066 593.676056,41.8638498 593.676056,44.7183099 L593.676056,112.624413 C591.122066,115.178404 583.910798,115.478873 578.652582,110.220657 C571.591549,103.159624 571.140845,99.1032864 571.140845,91.8920188 L571.140845,34.0516432 L572.643192,34.0516432 C580.605634,34.0516432 588.117371,35.7042254 591.2723,38.8591549 Z M623.122066,91.2910798 C623.57277,93.2441315 623.723005,95.1971831 623.723005,97 C623.723005,104.361502 621.619718,110.971831 618.915493,113.676056 C617.413146,115.178404 612.906103,118.183099 599.685446,118.183099 L598.183099,118.183099 C589.619718,118.183099 584.812207,116.380282 578.652582,110.220657 C574.14554,105.713615 573.84507,95.0469484 578.652582,89.9389671 C585.112676,95.3474178 589.619718,96.399061 598.032864,96.399061 C608.248826,96.399061 614.859155,94.5962441 622.521127,91.2910798 L623.122066,91.2910798 Z M595.178404,22.7840376 C591.422535,23.3849765 586.915493,23.685446 583.460094,23.685446 C574.896714,23.685446 568.13615,22.4835681 568.13615,14.370892 L568.13615,1.90140845 C571.892019,1.30046948 576.399061,1 579.85446,1 C588.41784,1 595.178404,2.20187793 595.178404,10.314554 L595.178404,22.7840376 Z M690.877934,33.7511737 C700.643192,33.7511737 711.00939,38.4084507 710.408451,44.8685446 C707.403756,76.8685446 697.037559,105.413146 681.86385,118.183099 L675.85446,118.183099 C666.840376,118.183099 662.333333,102.859155 666.389671,99.5539906 C680.061033,88.4366197 683.516432,72.0610329 687.2723,33.7511737 L690.877934,33.7511737 Z M639.046948,33.7511737 C648.812207,33.7511737 659.629108,37.056338 660.079812,41.2629108 C663.985915,76.7183099 670.14554,94.2957746 682.014085,103.760563 C684.117371,105.413146 685.619718,105.86385 686.821596,105.86385 L689.375587,105.86385 C686.821596,113.676056 682.164319,118.183099 675.85446,118.183099 C671.497653,118.183099 666.389671,117.431925 660.079812,111.122066 C646.258216,97.3004695 639.046948,72.2112676 635.441315,33.7511737 L639.046948,33.7511737 Z M771.704225,52.8309859 C757.732394,52.8309859 748.41784,61.2441315 748.41784,82.1267606 L748.41784,82.5774648 C748.41784,90.8403756 750.671362,100.906103 756.380282,106.765258 C748.117371,113.075117 740.755869,111.57277 736.849765,107.666667 C729.938967,100.755869 725.882629,89.9389671 725.882629,77.7699531 L725.882629,77.3192488 C725.882629,52.6807512 742.859155,33.7511737 769.300469,33.7511737 C776.511737,33.7511737 784.023474,38.4084507 784.023474,46.971831 C784.023474,49.6760563 782.821596,52.6807512 780.267606,54.6338028 C777.112676,53.4319249 774.70892,52.8309859 771.704225,52.8309859 Z M793.187793,113.525822 C789.58216,117.131455 779.065728,119.685446 768.248826,119.685446 C755.779343,119.685446 745.413146,116.230047 736.849765,107.666667 C733.093897,103.910798 731.29108,93.3943662 734.295775,85.8826291 C745.112676,95.6478873 752.173709,98.6525822 765.544601,98.6525822 C777.56338,98.6525822 787.328638,96.5492958 796.793427,91.1408451 L797.394366,91.1408451 C797.84507,93.0938967 797.995305,95.0469484 797.995305,96.8497653 C797.995305,104.211268 795.892019,110.821596 793.187793,113.525822 Z M761.938967,85.2816901 L761.338028,85.2816901 C752.323944,85.2816901 743.610329,78.2206573 743.610329,73.4131455 C743.610329,72.3615023 743.760563,70.5586854 744.211268,69.056338 C746.765258,70.1079812 751.57277,71.0093897 757.28169,71.0093897 C770.652582,71.0093897 777.262911,67.2535211 777.262911,60.1924883 L777.262911,59.741784 C777.262911,51.7793427 772.906103,47.8732394 763.29108,47.8732394 C763.29108,39.6103286 765.84507,33.7511737 769.300469,33.7511737 C788.230047,33.7511737 801,47.7230047 801,60.943662 L801,61.3943662 C801,75.8169014 789.431925,85.2816901 761.938967,85.2816901 Z" id="Recursive" stroke="#00FF00"></path>
    </g>
</svg>